<?xml version="1.0" standalone="no"?>
<svg version="1.1" baseProfile="full" xmlns="http://www.w3.org/2000/svg" text-rendering="geometricPrecision" width="816" height="1055" viewBox="0 0 816 1055" style="margin:0 auto;">
	<defs>
		<style>
			.h1{font-family:Times New Roman; fill:#000000; font-weight:bold; __fill:red}
			.ffi {font-family:impact, Arial;__fill:red}
			.p2 {font-family:Times New Roman; font-size:14px; fill:#333; __fill:red}
			.p2b {font-family:Times New Roman; font-size:14px; font-weight:bold; fill:#333; __fill:red}
			.h2 {font-family:Times New Roman; font-size:16px; font-variant:small-caps; fill:#333; font-weight:normal; __fill:red}
			.li-disc {fill:#000000; __fill:red}
			.light {fill:#999;}
			.text-cap {text-transform:capitalize;}
		</style>
	</defs>
	<line x1="33" y1="34" x2="783" y2="34" stroke="#545454" stroke-width="2"/>
	<text x="0" y="74" class="h1">
		<tspan style="font-size:26px" dx="380">石</tspan>
		<tspan style="font-size:26px" dx="0">涛</tspan>
	</text>

	<line x1="33" y1="95.5" x2="783" y2="95.5" stroke="#545454" stroke-width="1"/>
	<line x1="33" y1="100.5" x2="783" y2="100.5" stroke="#545454" stroke-width="3"/>
    <text x="25" y="127" class="p2">
		<tspan x="102">北京，海淀</tspan>
		<tspan x="285">电话: +86 15600277221</tspan>
		<tspan x="495">邮箱: i@woody.today / woostundy@gmail.com</tspan>
	</text>

	<circle cx="90" cy="123" r="3" class="li-disc"></circle>
	<circle cx="275" cy="123" r="3" class="li-disc"></circle>
	<circle cx="485" cy="123" r="3" class="li-disc"></circle>

	<line x1="33" y1="160.5" x2="356" y2="160.5" stroke="#545454" stroke-width="1"/>
	<text x="375" y="166" class="h2">职 业 概 述</text>
	<line x1="467" y1="160.5" x2="783" y2="160.5" stroke="#545454" stroke-width="1"/>

	<text x="34" y="192" class="p2">
		<tspan x="34" y="191">有三年的开发和网络安全工作经验。 大学期间曾组织一个20人左右规模的软件工作室。</tspan>
		<tspan x="34" y="213">作为2号员工加入创业公司，经历了整个的创业过程（从天使轮到A轮后期），并在其中承担了重要责任。</tspan>
		<tspan x="34" y="235">逻辑思维严密，好奇心强烈，最重要的是很好沟通。😉</tspan>

	</text>

	<line x1="33" y1="254.5" x2="365" y2="254.5" stroke="#545454" stroke-width="1"/>
	<text x="380" y="260" class="h2">技 能 点</text>
	<line x1="450" y1="254.5" x2="783" y2="254.5" stroke="#545454" stroke-width="1"/>

	<!-- <circle cx="50" cy="258" r="3" class="li-disc"></circle> -->
	<circle cx="50" cy="280" r="3" class="li-disc"></circle>
	<circle cx="50" cy="303" r="3" class="li-disc"></circle>
	<circle cx="50" cy="326" r="3" class="li-disc"></circle>
	<circle cx="425" cy="280" r="3" class="li-disc"></circle>
	<circle cx="425" cy="303" r="3" class="li-disc"></circle>
	<circle cx="425" cy="326" r="3" class="li-disc"></circle>

	<text x="65" y="286" class="p2">Python </text> 
	<!-- <text x="115" y="286" class="p2 light">familiar</text>  -->
	<text x="65" y="309" class="p2">HTML/Css/Js </text>
	<!-- <text x="155" y="309" class="p2 light">general</text> -->
	<text x="440" y="286" class="p2">Web 安全 </text> 
	<!-- <text x="525" y="286" class="p2 light">familiar</text>  -->
	<text x="440" y="309" class="p2">MySQL/No-SQL </text>
	 <!-- <text x="550" y="309" class="p2 light">general</text>  -->
	<text x="65" y="332" class="p2">需求分析/文档撰写 </text>
	<text x="440" y="332" class="p2">基础的PHP/C# </text>

	<line x1="33" y1="372.5" x2="356" y2="372.5" stroke="#545454" stroke-width="1"/>
	<text x="375" y="378" class="h2">工 作 经 历</text>
	<line x1="467" y1="372.5" x2="783" y2="372.5" stroke="#545454" stroke-width="1"/>

	<text x="33" y="403" class="p2b">研发工程师,</text>
	<text x="120" y="403" class="p2">2016-03 至 现在</text>
	<text x="33" y="426" class="p2b">TransferEasy Inc.</text>

	<circle cx="50" cy="443" r="3" class="li-disc"></circle>
	<circle cx="50" cy="488" r="3" class="li-disc"></circle>
	<circle cx="50" cy="579" r="3" class="li-disc"></circle>
	<circle cx="50" cy="629" r="3" class="li-disc"></circle>

	<text x="65" y="449" class="p2">开发了第一版的"TransferEasy"交易系统。同时参与了Python服务端及PHP前端的开发工作。包括核心交易系统(RESTful</text>
	<text x="65" y="472" class="p2">服务)，内部运营系统，以及用户管理系统(PHP + bootstrap)。( <a href="https://www.transfereasy.com/" target='_blank'>https://www.transfereasy.com/ )</a></text>
	<text x="65" y="494" class="p2">"BasaltMatrix"项目负责人，管理10人左右的开发团队，参与了整个产品线的规划和开发。</text>
	<text x="65" y="517" class="p2">负责沟通协调，产品结构设计，数据库设计，以及部分关键算法实现。包括针对1000万+风控黑名单数据的搜索引擎，</text>
	<text x="65" y="540" class="p2">大型scrapy爬虫，移动端APP，SaaS，内部运营系统，API开放平台。该产品线为微信、海航、老虎证券等企业，以及</text>
	<text x="65" y="562" class="p2">香港、新西兰等地的MSB行业商户提供反洗钱、反欺诈风控服务。 ( <a href="https://www.basaltmatrix.com/" target='_blank'>https://www.basaltmatrix.com/</a> )</text>
	<text x="65" y="585" class="p2">参与了"WiseCashier"产品的原型版本设计及开发，负责API开发平台开发，与微信服务的系统对接，项目基础框架的</text>
	<text x="65" y="608" class="p2">搭建。"WiseCashier"为海外商户提供微信/支付宝支付方案。 ( <a href='https://www.wisecashier.com/' target='_blank'>https://www.wisecashier.com/ )</a></text>
	<text x="65" y="633" class="p2">负责部分技术面试，公司内网安全。</text>


	<text x="33" y="667" class="p2b">安全工程师,</text>
	<text x="120" y="667" class="p2">2014-06 至 2016-03</text>
	<text x="33" y="690" class="p2b">北京鑫奥博科技发展公司</text>
	
	<text x="65" y="721" class="p2">根据团队需求开发工具及脚本。比如 Burpsuite 手工注入辅助工具，邮箱撞库工具，团队协作工具，Python + PowerShell</text>
	<text x="65" y="744" class="p2">远程控制脚本，PowerShell/Xss攻击脚本框架。</text>
	<text x="65" y="766" class="p2">参与 Web 及外网渗透测试。</text>
	<text x="65" y="789" class="p2">参与 Windows 环境下的APT维持。</text>
	<circle cx="50" cy="715" r="3" class="li-disc"></circle>
	<circle cx="50" cy="760" r="3" class="li-disc"></circle>
	

	<line x1="33" y1="807.5" x2="356" y2="807.5" stroke="#545454" stroke-width="1"/>
	<text x="375" y="813" class="h2">教 育 经 历</text>
	<line x1="467" y1="807.5" x2="783" y2="807.5" stroke="#545454" stroke-width="1"/>

	<text x="33" y="838" class="text-cap">
		<tspan x="33" y="838" class="p2b">信息安全，本科，部分课程内容：</tspan>
		<tspan dx="0" dy="0" class="p2">计算机网络，雷达原理，计算机程序设计(C、C++)，密码学</tspan>
	</text>
	
	<text x="33" y="861" class="text-cap">
		<tspan x="33" y="861" class="p2b">中北大学 -</tspan>
		<tspan dx="0" dy="0" class="p2">山西, 太原 2010 - 2014</tspan>
	</text>

	<line x1="33" y1="885.5" x2="375" y2="885.5" stroke="#545454" stroke-width="1"/>
	<text x="395" y="890" class="h2">其 他</text>
	<line x1="449" y1="885.5" x2="783" y2="885.5" stroke="#545454" stroke-width="1"/>
	<text x="33" y="914" class="p2">关注互联网行业，并有深入的思考，喜欢折腾，易于接受新鲜事物。</text>
	<text x="33" y="938" class="p2">硬核游戏玩家，对MOBA类游戏有深入理解。懂一点点设计 (海报/Web/PPT/排版)。</text>
	<text x="33" y="962" class="p2">渣口语，但英语读写没有问题，尤其是计算机领域，能读写开发文档，能发邮件和外国服务商对接口。</text>
	<text x="33" y="986" class="p2">可以在这找到我:
	<a href='https://www.zhihu.com/people/shitao' target='_blank'>https://www.zhihu.com/people/shitao </a>
	<a href='https://weibo.com/woostundy' target='_blank'> 或者 https://weibo.com/woostundy</a>
    </text>
	<text x="33" y="1010" class="p2">
		<tspan dx="0">English resume: <a href='https://woody.style/resume_zh.svg'>https://woody.style/resume_en.svg</a></tspan>
		<tspan dx="10"> (由于篇幅原因，英文版稍有简略)</tspan>
	</text>
</svg>